:SAMPLES-PER-SECOND 30
:FRAME-RANGE 1-2091
:FULLY-SPECIFIED
:DEGREES
785
root  8.15789 38.728 -6.80228 -4.53427 33.174 -10.2086
RightUpLeg  -17.2719 -0.751921 7.99361
RightLeg  18.1559 6.8368 4.14354
RightFoot  -3.48103 -0.220719 2.86626
RightToes  5.38607e-012 1.2921e-014 -6.02303e-014
Spine  -7.29415 -4.95723 7.40369
Spine1  11.3863 -6.1421 4.1898
HEad  21.8973 6.34464 -5.77879
LeftShoulder1  1.52371 -2.05238 -22.3782
LeftArm  -5.77871 -1.59957 -49.5596
LeftForeArm  37.7506 7.72606 -12.5908
LeftHand  0.0190992 7.22615 3.40409
RightShoulder  0.770017 -1.09558 28.7
RightArm  -39.733 -12.7182 30.0448
RightForeArm  27.5351 -4.71804 -6.2334
RightHand  0.0187215 -5.50626 -24.4265
LeftUpLeg  -7.92926 0.607839 5.48666
LeftLeg  57.5353 -6.51903 -10.418
LeftFoot  14.3638 3.7384 -16.6761
LeftToes  -7.20997e-011 3.75522e-011 -2.80735e-011
786
root  8.80026 38.821 -5.70642 -4.45538 33.9947 -9.97049
RightUpLeg  -15.4819 -1.57235 7.78049
RightLeg  19.1144 7.10241 4.29916
RightFoot  -6.03669 -0.144716 2.23743
RightToes  5.38607e-012 1.2921e-014 -6.02303e-014
Spine  -6.60833 -4.84324 8.16376
Spine1  11.2328 -5.85072 3.98874
HEad  20.5828 6.81929 -6.07254
LeftShoulder1  1.28664 -1.12103 -23.0376
LeftArm  -3.93972 3.78154 -46.1643
LeftForeArm  36.6549 7.80538 -13.178
LeftHand  -0.00201019 6.71962 2.71917
RightShoulder  0.605535 -1.58377 28.9452
RightArm  -39.9555 -20.2931 29.2233
RightForeArm  28.6505 -4.61386 -6.7509
RightHand  0.147439 -6.16881 -22.9916
LeftUpLeg  -12.9207 1.42331 5.95394
LeftLeg  63.5059 -4.12204 -8.3452
LeftFoot  11.7486 2.78079 -13.9116
LeftToes  -7.20997e-011 3.75522e-011 -2.80735e-011
787
root  9.46864 38.9487 -4.63376 -3.98615 34.3136 -8.87944
RightUpLeg  -13.2907 -2.30474 6.9581
RightLeg  19.4081 7.8168 4.32085
RightFoot  -8.2707 -0.099109 1.6034
RightToes  5.38607e-012 1.2921e-014 -6.02303e-014
Spine  -6.04483 -4.63222 8.2314
Spine1  11.1815 -5.41887 3.37496
HEad  19.5888 7.40863 -6.04378
LeftShoulder1  1.02802 -0.205703 -23.2556
LeftArm  -2.63718 9.17418 -43.1757
LeftForeArm  36.238 7.8135 -13.2895
LeftHand  -0.00889046 6.32918 2.75193
RightShoulder  0.513592 -1.8492 28.9701
RightArm  -39.907 -28.3318 28.9112
RightForeArm  29.4608 -4.56175 -6.99076
RightHand  0.00826413 -5.47644 -22.095
LeftUpLeg  -17.1657 2.37779 5.46015
LeftLeg  66.3637 -2.17545 -4.76043
LeftFoot  5.82122 1.55651 -10.5278
LeftToes  -7.20997e-011 3.75522e-011 -2.80735e-011
788
root  10.1383 39.0395 -3.61096 -3.13861 34.2116 -7.37065
RightUpLeg  -11.4413 -2.50552 5.92753
RightLeg  19.9042 8.53051 4.0063
RightFoot  -10.2942 -0.0774942 0.84624
RightToes  5.38607e-012 1.2921e-014 -6.02303e-014
Spine  -5.39097 -4.3068 7.87385
Spine1  10.7186 -4.91268 2.74023
HEad  19.1208 8.10121 -5.85282
LeftShoulder1  0.776536 0.640084 -23.0988
LeftArm  -1.86614 14.2488 -40.7907
LeftForeArm  35.5028 7.833 -13.2299
LeftHand  -0.00270297 6.42005 3.19591
RightShoulder  0.469227 -1.97755 28.9939
RightArm  -39.7768 -36.4428 28.7171
RightForeArm  30.5256 -4.53632 -7.06015
RightHand  -0.108399 -4.85393 -21.6224
LeftUpLeg  -21.0692 3.41133 4.56065
LeftLeg  66.1855 -0.81237 -1.3239
LeftFoot  3.7158 1.01069 -7.81085
LeftToes  -7.20997e-011 3.75522e-011 -2.80735e-011
789
root  10.8073 39.1092 -2.63708 -2.2632 33.7829 -5.94225
RightUpLeg  -9.7474 -2.72828 4.8979
RightLeg  20.4525 9.12356 3.84555
RightFoot  -11.9139 -0.0835499 -0.584265
RightToes  5.38607e-012 1.2921e-014 -6.02303e-014
Spine  -4.69741 -4.02194 7.3764
Spine1  10.0931 -4.50226 2.12705
HEad  18.8223 8.95522 -5.77069
LeftShoulder1  0.502293 1.55328 -22.604
LeftArm  -2.25385 19.1419 -39.1615
LeftForeArm  34.6019 7.48654 -12.8366
LeftHand  0.00318226 6.40357 3.56727
RightShoulder  0.425226 -2.10492 29.025
RightArm  -39.6313 -43.1901 28.164
RightForeArm  32.3993 -4.48129 -7.22756
RightHand  -0.250997 -4.09965 -21.8468
LeftUpLeg  -24.3176 4.59329 3.78076
LeftLeg  63.2807 0.184822 1.02929
LeftFoot  1.90702 0.615428 -5.39761
LeftToes  -7.20997e-011 3.75522e-011 -2.80735e-011
790
root  11.4983 39.1728 -1.69973 -1.61073 33.1607 -4.68394
RightUpLeg  -7.75074 -2.38297 4.02203
RightLeg  20.5647 8.83893 3.30538
RightFoot  -13.4873 -0.112599 -1.14095
RightToes  5.38607e-012 1.2921e-014 -6.02303e-014
Spine  -4.24939 -3.75206 6.74234
Spine1  9.97797 -4.17541 1.55463
HEad  18.4315 9.82607 -5.76718
LeftShoulder1  0.336769 2.12156 -22.3774
LeftArm  -2.91176 23.2784 -37.9186
LeftForeArm  32.7904 7.19075 -12.4647
LeftHand  -0.00125415 6.38512 3.22536
RightShoulder  0.457472 -2.01405 29.0715
RightArm  -38.7082 -48.1011 26.8871
RightForeArm  34.7928 -4.46244 -7.13077
RightHand  -0.440655 -3.16062 -22.545
LeftUpLeg  -26.5111 5.65488 3.1191
LeftLeg  57.8542 1.47236 3.05881
LeftFoot  -0.983606 0.405735 -4.41121
LeftToes  -7.20997e-011 3.75522e-011 -2.80735e-011
791
root  12.1967 39.196 -0.804112 -0.774948 32.5013 -3.64784
RightUpLeg  -6.02233 -1.73261 2.95621
RightLeg  20.2358 9.31487 3.16045
RightFoot  -14.8332 -0.137948 -1.23454
RightToes  5.38607e-012 1.2921e-014 -6.02303e-014
Spine  -4.49532 -3.54738 6.18265
Spine1  10.5371 -3.92794 0.73037
HEad  17.8612 10.1963 -5.37329
LeftShoulder1  0.159103 2.74305 -22.2541
LeftArm  -3.64209 25.8069 -37.169
LeftForeArm  31.0435 7.77915 -12.2149
LeftHand  -0.00782203 6.39461 2.73641
RightShoulder  0.502987 -1.88321 29.0607
RightArm  -37.6474 -50.7925 25.3061
RightForeArm  38.0436 -4.42596 -7.02035
RightHand  -0.176093 -4.51233 -22.2221
LeftUpLeg  -28.0697 6.35923 2.64921
LeftLeg  50.0264 2.79278 4.00738
LeftFoot  -2.95162 0.297066 -3.80841
LeftToes  -7.20997e-011 3.75522e-011 -2.80735e-011
